# xmcd
#
# Track frame offsets:
#	150
#	16529
#	30788
#	42461
#	58514
#	79837
#	94197
#	111848
#	125490
#	143452
#	156042
#	172567
#	185902
#	198595
#
# Disc length: 2887 seconds
#
# Revision: 1
# Processed by: cddbd v1.5.2PL0 Copyright (c) Steve Scherf et al.
# Submitted via: audiograbber 1.83.01
#
DISCID=a70b450e
DTITLE=PERKATA DE COURO - CORAGEM PRA FALAR
DYEAR=1900
DGENRE=FORRÓ
TTITLE0=CORAGEM PRA FALAR
TTITLE1=PORQUE VOCÊ ME FEZ A CABEÇA
TTITLE2=LAMENTO SERTANEJO
TTITLE3=TEU CHEIRO
TTITLE4=A MASSA
TTITLE5=O VELHO ARVOREDO
TTITLE6=ASAS DA ILUSÃO
TTITLE7=SANFONA SENTIDA
TTITLE8=FORRÓ E PAIXÃO
TTITLE9=BOLINHA DA PAPEL
TTITLE10=DONA DA MINHA CABEÇA
TTITLE11=NAMORO DE CRIANÇA
TTITLE12=TUDO AZUL
TTITLE13=NÃO ME QUER MAIS
EXTD=
EXTT0=
EXTT1=
EXTT2=
EXTT3=
EXTT4=
EXTT5=
EXTT6=
EXTT7=
EXTT8=
EXTT9=
EXTT10=
EXTT11=
EXTT12=
EXTT13=
PLAYORDER=
